<svg width="331" height="57" viewBox="0 0 331 57" fill="none" xmlns="http://www.w3.org/2000/svg">
<path d="M53.384 18.344C57.608 18.344 60.8 19.4 62.96 21.512C65.168 23.576 66.272 26.432 66.272 30.08C66.272 31.328 66.128 32.672 65.84 34.112L61.448 56H59.072L63.464 34.112C63.752 32.72 63.896 31.448 63.896 30.296C63.896 27.224 62.96 24.848 61.088 23.168C59.264 21.44 56.576 20.576 53.024 20.576C48.704 20.576 45.056 21.776 42.08 24.176C39.152 26.528 37.256 29.936 36.392 34.4L32 56H29.624L34.016 34.112C34.304 32.72 34.448 31.448 34.448 30.296C34.448 27.176 33.536 24.776 31.712 23.096C29.888 21.416 27.2 20.576 23.648 20.576C19.232 20.576 15.536 21.848 12.56 24.392C9.63199 26.936 7.68799 30.608 6.72799 35.408L2.62399 56H0.247986L7.66399 18.632H10.04L8.45599 26.624C11.96 21.104 17.168 18.344 24.08 18.344C27.728 18.344 30.608 19.16 32.72 20.792C34.88 22.424 36.2 24.704 36.68 27.632C38.504 24.56 40.832 22.256 43.664 20.72C46.544 19.136 49.784 18.344 53.384 18.344Z" fill="#180A29"/>
<path d="M80.8452 18.632H83.2212L75.8052 56H73.4292L80.8452 18.632ZM84.3012 8.84C83.6772 8.84 83.1492 8.624 82.7172 8.192C82.3332 7.76 82.1412 7.256 82.1412 6.68C82.1412 6.008 82.3812 5.432 82.8612 4.952C83.3412 4.424 83.9172 4.16 84.5892 4.16C85.2132 4.16 85.7412 4.376 86.1732 4.808C86.6052 5.24 86.8212 5.744 86.8212 6.32C86.8212 6.992 86.5572 7.592 86.0292 8.12C85.5492 8.6 84.9732 8.84 84.3012 8.84Z" fill="#180A29"/>
<path d="M112.517 18.344C116.789 18.344 120.053 19.4 122.309 21.512C124.565 23.576 125.693 26.432 125.693 30.08C125.693 31.328 125.549 32.672 125.261 34.112L120.869 56H118.493L122.885 34.112C123.125 33.008 123.245 31.784 123.245 30.44C123.245 27.272 122.285 24.848 120.365 23.168C118.493 21.44 115.709 20.576 112.013 20.576C107.453 20.576 103.661 21.848 100.637 24.392C97.6128 26.936 95.6208 30.608 94.6608 35.408L90.5568 56H88.1808L95.5968 18.632H97.9728L96.3888 26.696C98.1648 23.864 100.421 21.776 103.157 20.432C105.941 19.04 109.061 18.344 112.517 18.344Z" fill="#180A29"/>
<path d="M157.151 18.344C161.423 18.344 164.687 19.4 166.943 21.512C169.199 23.576 170.327 26.432 170.327 30.08C170.327 31.328 170.183 32.672 169.895 34.112L165.503 56H163.127L167.519 34.112C167.759 33.008 167.879 31.784 167.879 30.44C167.879 27.272 166.919 24.848 164.999 23.168C163.127 21.44 160.343 20.576 156.647 20.576C152.087 20.576 148.295 21.848 145.271 24.392C142.247 26.936 140.255 30.608 139.295 35.408L135.191 56H132.815L143.471 2.576H145.847L141.023 26.624C142.799 23.84 145.055 21.776 147.791 20.432C150.575 19.04 153.695 18.344 157.151 18.344Z" fill="#180A29"/>
<path d="M217.48 18.632L210.064 56H207.688L209.416 47.504C207.592 50.24 205.24 52.376 202.36 53.912C199.48 55.448 196.264 56.216 192.712 56.216C187.816 56.216 183.904 54.848 180.976 52.112C178.096 49.328 176.656 45.584 176.656 40.88C176.656 36.608 177.568 32.768 179.392 29.36C181.216 25.952 183.736 23.264 186.952 21.296C190.168 19.328 193.792 18.344 197.824 18.344C202 18.344 205.384 19.304 207.976 21.224C210.568 23.144 212.224 25.856 212.944 29.36L215.104 18.632H217.48ZM193.144 54.056C196.696 54.056 199.864 53.192 202.648 51.464C205.48 49.736 207.688 47.336 209.272 44.264C210.904 41.144 211.72 37.664 211.72 33.824C211.72 29.6 210.472 26.336 207.976 24.032C205.528 21.728 202.096 20.576 197.68 20.576C194.128 20.576 190.936 21.464 188.104 23.24C185.272 24.968 183.04 27.368 181.408 30.44C179.824 33.512 179.032 36.968 179.032 40.808C179.032 45.032 180.256 48.296 182.704 50.6C185.2 52.904 188.68 54.056 193.144 54.056Z" fill="#180A29"/>
<path d="M264.016 17.552L256.312 56H247.744L248.608 51.752C245.152 54.92 240.808 56.504 235.576 56.504C231.352 56.504 227.968 55.376 225.424 53.12C222.928 50.816 221.68 47.6 221.68 43.472C221.68 41.936 221.848 40.4 222.184 38.864L226.432 17.552H235.432L231.184 38.648C230.992 39.608 230.896 40.592 230.896 41.6C230.896 43.856 231.52 45.584 232.768 46.784C234.064 47.984 235.984 48.584 238.528 48.584C241.792 48.584 244.504 47.672 246.664 45.848C248.824 43.976 250.264 41.192 250.984 37.496L255.016 17.552H264.016Z" fill="#5F00DB"/>
<path d="M293.08 17.12C297.4 17.12 300.808 18.248 303.304 20.504C305.848 22.76 307.12 25.952 307.12 30.08C307.12 31.232 306.952 32.768 306.616 34.688L302.368 56H293.368L297.544 34.904C297.736 33.944 297.832 32.96 297.832 31.952C297.832 27.296 295.264 24.968 290.128 24.968C286.816 24.968 284.08 25.904 281.92 27.776C279.76 29.6 278.296 32.36 277.528 36.056L273.496 56H264.496L272.128 17.552H280.696L279.832 21.8C283.288 18.68 287.704 17.12 293.08 17.12Z" fill="#5F00DB"/>
<path d="M317.817 17.552H326.817L319.185 56H310.185L317.817 17.552ZM324.369 11.216C322.785 11.216 321.489 10.736 320.481 9.776C319.473 8.768 318.969 7.568 318.969 6.176C318.969 4.544 319.521 3.176 320.625 2.072C321.777 0.968 323.265 0.416 325.089 0.416C326.673 0.416 327.969 0.896 328.977 1.856C329.985 2.768 330.489 3.896 330.489 5.24C330.489 7.016 329.913 8.456 328.761 9.56C327.657 10.664 326.193 11.216 324.369 11.216Z" fill="#5F00DB"/>
</svg>
